{"title":"[MARATHI] Hi Porgi Konachi 2006 YTBRip (RRG)","uid":7575549,"size":721797899,"categoryP":"video","categoryS":"movies","magnet":"?xt=urn:btih:f1e8ebfb3fe2c76f6ee7fda077f16a9d8135eddd&amp;dn=%5BMARATHI%5D+Hi+Porgi+Konachi+2006+YTBRip+%28RRG%29&amp;tr=udp%3A%2F%2Ftracker.openbittorrent.com%3A80&amp;tr=udp%3A%2F%2Fopen.demonii.com%3A1337&amp;tr=udp%3A%2F%2Ftracker.coppersurfer.tk%3A6969&amp;tr=udp%3A%2F%2Fexodus.desync.com%3A6969","seeders":0,"leechers":0,"uploader":"SJonam","files":1,"time":1346105178,"description":" &lt;a href=&quot;http://desibbrg.org/images/25793733514958777881.jpg&quot; rel=&quot;nofollow&quot; target=&quot;_NEW&quot;&gt;http://desibbrg.org/images/25793733514958777881.jpg&lt;/a&gt; &lt;a href=&quot;\nhttp://desibbrg.org/images/98847322475826650505.jpg&quot; rel=&quot;nofollow&quot; target=&quot;_NEW&quot;&gt;\nhttp://desibbrg.org/images/98847322475826650505.jpg&lt;/a&gt; &lt;a href=&quot;\nhttp://desibbrg.org/images/59442175039556407611.jpg&quot; rel=&quot;nofollow&quot; target=&quot;_NEW&quot;&gt;\nhttp://desibbrg.org/images/59442175039556407611.jpg&lt;/a&gt; &lt;a href=&quot;\nhttp://desibbrg.org/images/56241000763762310028.jpg&quot; rel=&quot;nofollow&quot; target=&quot;_NEW&quot;&gt;\nhttp://desibbrg.org/images/56241000763762310028.jpg&lt;/a&gt; &lt;a href=&quot;\nhttp://desibbrg.org/images/59858340642653945890.jpg&quot; rel=&quot;nofollow&quot; target=&quot;_NEW&quot;&gt;\nhttp://desibbrg.org/images/59858340642653945890.jpg&lt;/a&gt; &lt;a href=&quot;\nhttp://desibbrg.org/images/60441831697056698109.jpg&quot; rel=&quot;nofollow&quot; target=&quot;_NEW&quot;&gt;\nhttp://desibbrg.org/images/60441831697056698109.jpg&lt;/a&gt;\n\nInfo - \nDirector : Girish Mohite\n\t \nCast : Nirmiti Savant, Arun Nalavade, Ranjit Jog, Kadambari Desai, Prakash Inamdar, Paddy Kambale, Swati Chitnis, Vijay Gokhale,\nSachin Pilgaonkar and Ujwala Jog\n\nMedia Info - \nGeneral\nComplete name                  : Hi Porgi Konachi 2006 YTBRip.flv\nFormat                         : Flash Video\nFile size                      : 688 MiB\nDuration                       : 2h 10mn\nOverall bit rate               : 739 Kbps\n\nVideo\nFormat                         : AVC\nFormat/Info                    : Advanced Video Codec\nFormat profile                 : &lt;a class=&quot;__cf_email__&quot; href=&quot;/cdn-cgi/l/email-protection&quot; data-cfemail=&quot;501d31393e101c637e60&quot;&gt;[email&amp;#160;protected]&lt;/a&gt;&lt;script data-cfhash='f9e31' type=&quot;text/javascript&quot;&gt;\n/* &lt;![CDATA[ */!function(){try{var t=&quot;currentScript&quot;in document?document.currentScript:function(){for(var t=document.getElementsByTagName(&quot;script&quot;),e=t.length;e--;)if(t[e].getAttribute(&quot;data-cfhash&quot;))return t[e]}();if(t&amp;&amp;t.previousSibling){var e,r,n,i,c=t.previousSibling,a=c.getAttribute(&quot;data-cfemail&quot;);if(a){for(e=&quot;&quot;,r=parseInt(a.substr(0,2),16),n=2;a.length-n;n+=2)i=parseInt(a.substr(n,2),16)^r,e+=String.fromCharCode(i);e=document.createTextNode(e),c.parentNode.replaceChild(e,c)}t.parentNode.removeChild(t);}}catch(u){}}()/* ]]&gt; */&lt;/script&gt;\nFormat settings, CABAC         : Yes\nFormat settings, ReFrames      : 3 frames\nFormat settings, GOP           : M=1, N=25\nCodec ID                       : 7\nDuration                       : 2h 10mn\nBit rate                       : 634 Kbps\nWidth                          : 640 pixels\nHeight                         : 480 pixels\nDisplay aspect ratio           : 4:3\nFrame rate mode                : Constant\nFrame rate                     : 25.000 fps\nColor space                    : YUV\nChroma subsampling             : 4:2:0\nBit depth                      : 8 bits\nScan type                      : Progressive\nBits/(Pixel*Frame)             : 0.083\nStream size                    : 591 MiB (86%)\n\nAudio\nFormat                         : AAC\nFormat/Info                    : Advanced Audio Codec\nFormat profile                 : LC\nCodec ID                       : 10\nDuration                       : 2h 10mn\nBit rate                       : 96.7 Kbps\nChannel(s)                     : 2 channels\nChannel positions              : Front: L R\nSampling rate                  : 44.1 KHz\nCompression mode               : Lossy\nStream size                    : 90.1 MiB (13%)\n\nRipper : Saket\n\nSeeding 24x7... Extreme Seeding...\n\n\nEnjoy!\n","torrent":{"xt":"urn:btih:f1e8ebfb3fe2c76f6ee7fda077f16a9d8135eddd","amp;dn":"%5BMARATHI%5D+Hi+Porgi+Konachi+2006+YTBRip+%28RRG%29","amp;tr":["udp%3A%2F%2Ftracker.openbittorrent.com%3A80","udp%3A%2F%2Fopen.demonii.com%3A1337","udp%3A%2F%2Ftracker.coppersurfer.tk%3A6969","udp%3A%2F%2Fexodus.desync.com%3A6969"],"infoHash":"f1e8ebfb3fe2c76f6ee7fda077f16a9d8135eddd","infoHashBuffer":{"type":"Buffer","data":[241,232,235,251,63,226,199,111,110,231,253,160,119,241,106,157,129,53,237,221]},"announce":[],"urlList":[]}}